<?xml version="1.0" encoding="UTF-8" standalone="no"?>
<svg
   xmlns:xhtml="http://www.w3.org/1999/xhtml"
   xmlns:dc="http://purl.org/dc/elements/1.1/"
   xmlns:cc="http://creativecommons.org/ns#"
   xmlns:rdf="http://www.w3.org/1999/02/22-rdf-syntax-ns#"
   xmlns:svg="http://www.w3.org/2000/svg"
   xmlns="http://www.w3.org/2000/svg"
   xmlns:sodipodi="http://sodipodi.sourceforge.net/DTD/sodipodi-0.dtd"
   xmlns:inkscape="http://www.inkscape.org/namespaces/inkscape"
   id="mySVG"
   aria-label="pull request"
   class="octicon octicon-git-pull-request type-icon type-icon-state-merged"
   height="16"
   role="img"
   version="1.1"
   viewBox="0 0 16 16"
   width="16"
   sodipodi:docname="pull request.svg"
   inkscape:version="0.92.1 r">
  <metadata
     id="metadata9">
    <rdf:RDF>
      <cc:Work
         rdf:about="">
        <dc:format>image/svg+xml</dc:format>
        <dc:type
           rdf:resource="http://purl.org/dc/dcmitype/StillImage" />
        <dc:title></dc:title>
      </cc:Work>
    </rdf:RDF>
  </metadata>
  <sodipodi:namedview
     pagecolor="#ffffff"
     bordercolor="#666666"
     borderopacity="1"
     objecttolerance="10"
     gridtolerance="10"
     guidetolerance="10"
     inkscape:pageopacity="0"
     inkscape:pageshadow="2"
     inkscape:window-width="1261"
     inkscape:window-height="797"
     id="namedview7"
     showgrid="false"
     inkscape:zoom="14.75"
     inkscape:cx="-5.4915254"
     inkscape:cy="7.7288136"
     inkscape:window-x="45"
     inkscape:window-y="72"
     inkscape:window-maximized="0"
     inkscape:current-layer="mySVG" />
  <defs
     id="defs2">
    <xhtml:style>.type-icon-state-merged { color: rgb(111, 66, 193); }
</xhtml:style>
  </defs>
  <path
     d="M 13,11.28 V 5 C 12.97,4.22 12.66,3.53 12.06,2.94 11.46,2.35 10.78,2.03 10,2 H 9 V 0 L 6,3 9,6 V 4 h 1 c 0.27,0.02 0.48,0.11 0.69,0.31 0.21,0.2 0.3,0.42 0.31,0.69 v 6.28 a 1.993,1.993 0 0 0 1,3.72 1.993,1.993 0 0 0 1,-3.72 z m -1,2.92 c -0.66,0 -1.2,-0.55 -1.2,-1.2 0,-0.65 0.55,-1.2 1.2,-1.2 0.65,0 1.2,0.55 1.2,1.2 0,0.65 -0.55,1.2 -1.2,1.2 z M 6,3 C 6,1.89 5.11,1 4,1 A 1.993,1.993 0 0 0 3,4.72 v 6.56 A 1.993,1.993 0 0 0 4,15 1.993,1.993 0 0 0 5,11.28 V 4.72 C 5.59,4.38 6,3.74 6,3 Z M 5.2,13 c 0,0.66 -0.55,1.2 -1.2,1.2 -0.65,0 -1.2,-0.55 -1.2,-1.2 0,-0.65 0.55,-1.2 1.2,-1.2 0.65,0 1.2,0.55 1.2,1.2 z M 4,4.2 C 3.34,4.2 2.8,3.65 2.8,3 2.8,2.35 3.35,1.8 4,1.8 4.65,1.8 5.2,2.35 5.2,3 5.2,3.65 4.65,4.2 4,4.2 Z"
     id="path4"
     inkscape:connector-curvature="0"
     style="fill-rule:evenodd;fill:#6f42c1;fill-opacity:1" />
</svg>
